<?xml version="1.0" encoding="UTF-8" standalone="no"?>
<!-- Created with Inkscape (http://www.inkscape.org/) -->

<svg
   width="206.82712mm"
   height="88.501305mm"
   viewBox="0 0 206.82712 88.501305"
   version="1.1"
   id="svg5"
   inkscape:version="1.1 (1:1.1+202105261518+ce6663b3b7)"
   sodipodi:docname="CC.svg"
   xmlns:inkscape="http://www.inkscape.org/namespaces/inkscape"
   xmlns:sodipodi="http://sodipodi.sourceforge.net/DTD/sodipodi-0.dtd"
   xmlns="http://www.w3.org/2000/svg"
   xmlns:svg="http://www.w3.org/2000/svg">
  <sodipodi:namedview
     id="namedview7"
     pagecolor="#ffffff"
     bordercolor="#666666"
     borderopacity="1.0"
     inkscape:pageshadow="2"
     inkscape:pageopacity="0.0"
     inkscape:pagecheckerboard="0"
     inkscape:document-units="mm"
     showgrid="false"
     fit-margin-top="0"
     fit-margin-left="0"
     fit-margin-right="0"
     fit-margin-bottom="0"
     inkscape:zoom="0.38796647"
     inkscape:cx="654.69575"
     inkscape:cy="463.95762"
     inkscape:window-width="1788"
     inkscape:window-height="1401"
     inkscape:window-x="2560"
     inkscape:window-y="18"
     inkscape:window-maximized="1"
     inkscape:current-layer="layer1" />
  <defs
     id="defs2" />
  <g
     inkscape:label="Layer 1"
     inkscape:groupmode="layer"
     id="layer1"
     transform="translate(37.202208,-50.747273)">
    <text
       xml:space="preserve"
       style="font-size:10.5833px;line-height:1.25;font-family:arial;-inkscape-font-specification:arial;word-spacing:0px;fill:#006886;fill-opacity:1;stroke-width:0.264583"
       x="44.650383"
       y="58.416031"
       id="text1640"><tspan
         sodipodi:role="line"
         id="tspan1638"
         style="fill:#006886;fill-opacity:1;stroke-width:0.264583"
         x="44.650383"
         y="58.416031">attr.</tspan></text>
    <text
       xml:space="preserve"
       style="font-size:10.5833px;line-height:1.25;font-family:arial;-inkscape-font-specification:arial;word-spacing:0px;fill:#006886;fill-opacity:1;stroke-width:0.264583"
       x="83.619484"
       y="58.416031"
       id="text2450"><tspan
         sodipodi:role="line"
         id="tspan2448"
         style="fill:#006886;fill-opacity:1;stroke-width:0.264583"
         x="83.619484"
         y="58.416031">usage</tspan></text>
    <text
       xml:space="preserve"
       style="font-size:10.5833px;line-height:1.25;font-family:arial;-inkscape-font-specification:arial;word-spacing:0px;fill:#006886;fill-opacity:1;stroke-width:0.264583"
       x="127.92513"
       y="58.416031"
       id="text2454"><tspan
         sodipodi:role="line"
         id="tspan2452"
         style="fill:#006886;fill-opacity:1;stroke-width:0.264583"
         x="127.92513"
         y="58.416031">sharing</tspan></text>
    <path
       id="path3817_1_"
       nodetypes="ccccccc"
       d="M -31.790259,67.733809 163.58149,68.08086 c 2.72982,0 5.16859,-0.40475 5.16859,5.447352 l -0.23919,64.338878 H -36.720493 V 73.289041 c 0,-2.885898 0.279345,-5.555232 4.930234,-5.555232 z"
       style="fill:#aab2ab;stroke-width:1.71274" />
    <path
       d="M 165.75097,66.859091 H -33.329114 c -2.135175,0 -3.873094,1.7369 -3.873094,3.871853 V 138.3747 c 0,0.48252 0.392237,0.87388 0.874809,0.87388 H 168.7501 c 0.48257,0 0.87481,-0.39138 0.87481,-0.87388 V 70.730944 c -2e-5,-2.134953 -1.73792,-3.871853 -3.87394,-3.871853 z M -33.329131,68.608527 H 165.75096 c 1.17171,0 2.1243,0.95165 2.1243,2.122417 0,0 0,27.313727 0,47.011706 H 25.12105 c -5.21542,9.4296 -15.2632183,15.83196 -26.7946844,15.83196 -11.5364846,0 -21.5817826,-6.3965 -26.7946836,-15.83196 h -6.984289 c 0,-19.697961 0,-47.011706 0,-47.011706 1.7e-5,-1.17075 0.952605,-2.122417 2.123476,-2.122417 z"
       id="path263"
       style="stroke-width:1.71274" />
    <g
       id="g5908_1_"
       transform="matrix(1.495162,0,0,1.4950068,-257.61002,312.135)">
      <path
         id="path5906_1_"
         cx="296.35416"
         ry="22.939548"
         cy="264.3577"
         type="arc"
         rx="22.939548"
         d="m 186.90065,-141.46002 c 0.006,8.68079 -7.02786,15.7215 -15.70808,15.72711 -8.68022,0.006 -15.72206,-7.02734 -15.7271,-15.70807 0,-0.006 0,-0.0123 0,-0.019 -0.005,-8.68079 7.02786,-15.7215 15.70808,-15.72656 8.68135,-0.006 15.72206,7.02734 15.7271,15.70813 0,0.006 0,0.0123 0,0.0184 z"
         style="fill:#ffffff" />
      <g
         id="g5706_1_"
         transform="translate(-289.6157,99.0653)">
        <path
           id="path5708_1_"
           d="m 473.57574,-253.32751 c 3.48541,3.48541 5.22839,7.75391 5.22839,12.80219 0,5.04938 -1.71277,9.27203 -5.13831,12.66791 -3.63531,3.5766 -7.93182,5.36432 -12.88947,5.36432 -4.89777,0 -9.11987,-1.77319 -12.66513,-5.31952 -3.54581,-3.54584 -5.31845,-7.78302 -5.31845,-12.71271 0,-4.92859 1.77264,-9.19598 5.31845,-12.80219 3.4552,-3.48651 7.67728,-5.22949 12.66513,-5.22949 5.0483,-10e-6 9.31404,1.74297 12.79939,5.22949 z m -23.11798,2.34484 c -2.94672,2.97638 -4.41953,6.46289 -4.41953,10.46234 0,3.99835 1.45828,7.45526 4.37424,10.37067 2.9165,2.9165 6.38849,4.37421 10.41705,4.37421 4.02856,0 7.53015,-1.47223 10.50653,-4.4184 2.82593,-2.73645 4.23944,-6.17706 4.23944,-10.32648 0,-4.11804 -1.43646,-7.61346 -4.30768,-10.48468 -2.87067,-2.87067 -6.34991,-4.30658 -10.43829,-4.30658 -4.0884,1e-5 -7.54638,1.44318 -10.37176,4.32892 z m 7.75449,8.70319 c -0.45029,-0.98169 -1.1243,-1.47284 -2.02322,-1.47284 -1.58917,0 -2.38345,1.07007 -2.38345,3.20911 0,2.13953 0.79428,3.2085 2.38345,3.2085 1.04938,0 1.79892,-0.52075 2.24866,-1.56451 l 2.20276,1.17297 c -1.04993,1.86548 -2.62509,2.79846 -4.72549,2.79846 -1.6199,0 -2.91763,-0.4967 -3.89206,-1.48901 -0.9761,-0.99341 -1.46274,-2.36273 -1.46274,-4.10852 0,-1.71503 0.50229,-3.07654 1.50748,-4.08502 1.00519,-1.00854 2.25702,-1.51257 3.75781,-1.51257 2.22012,0 3.80981,0.87488 4.77081,2.62286 z m 10.36337,0 c -0.45087,-0.98169 -1.11145,-1.47284 -1.98242,-1.47284 -1.62103,0 -2.43213,1.07007 -2.43213,3.20911 0,2.13953 0.8111,3.2085 2.43213,3.2085 1.05109,0 1.78717,-0.52075 2.20728,-1.56451 l 2.25201,1.17297 c -1.04828,1.86548 -2.62122,2.79846 -4.71771,2.79846 -1.61768,0 -2.9126,-0.4967 -3.88647,-1.48901 -0.97217,-0.99341 -1.45935,-2.36273 -1.45935,-4.10852 0,-1.71503 0.49445,-3.07654 1.48285,-4.08502 0.98785,-1.00854 2.2453,-1.51257 3.7735,-1.51257 2.21619,0 3.80365,0.87488 4.76129,2.62286 z" />
      </g>
    </g>
  </g>
  <style
     type="text/css"
     id="style6495">.st0{fill:#ABB1AA;} .st1{fill:#FFFFFF;} .st2{fill:#FFFFFF;stroke:#000000;stroke-width:14;stroke-miterlimit:10;}</style>
</svg>
