<?xml version="1.0" encoding="UTF-8" standalone="no"?>
<!-- Created with Inkscape (http://www.inkscape.org/) -->

<svg
   width="206.82712mm"
   height="88.501305mm"
   viewBox="0 0 206.82712 88.501305"
   version="1.1"
   id="svg5"
   inkscape:version="1.1 (1:1.1+202105261518+ce6663b3b7)"
   sodipodi:docname="CC_3.svg"
   xmlns:inkscape="http://www.inkscape.org/namespaces/inkscape"
   xmlns:sodipodi="http://sodipodi.sourceforge.net/DTD/sodipodi-0.dtd"
   xmlns="http://www.w3.org/2000/svg"
   xmlns:svg="http://www.w3.org/2000/svg">
  <sodipodi:namedview
     id="namedview7"
     pagecolor="#ffffff"
     bordercolor="#666666"
     borderopacity="1.0"
     inkscape:pageshadow="2"
     inkscape:pageopacity="0.0"
     inkscape:pagecheckerboard="0"
     inkscape:document-units="mm"
     showgrid="false"
     fit-margin-top="0"
     fit-margin-left="0"
     fit-margin-right="0"
     fit-margin-bottom="0"
     inkscape:zoom="0.77593294"
     inkscape:cx="359.56716"
     inkscape:cy="381.47626"
     inkscape:window-width="1788"
     inkscape:window-height="1401"
     inkscape:window-x="2560"
     inkscape:window-y="18"
     inkscape:window-maximized="1"
     inkscape:current-layer="layer1" />
  <defs
     id="defs2" />
  <g
     inkscape:label="Layer 1"
     inkscape:groupmode="layer"
     id="layer1"
     transform="translate(37.202208,-50.747273)">
    <text
       xml:space="preserve"
       style="font-size:10.5833px;line-height:1.25;font-family:arial;-inkscape-font-specification:arial;word-spacing:0px;fill:#006886;fill-opacity:1;stroke-width:0.264583"
       x="44.650383"
       y="58.416031"
       id="text1640"><tspan
         sodipodi:role="line"
         id="tspan1638"
         style="fill:#006886;fill-opacity:1;stroke-width:0.264583"
         x="44.650383"
         y="58.416031">attr.</tspan></text>
    <text
       xml:space="preserve"
       style="font-size:10.5833px;line-height:1.25;font-family:arial;-inkscape-font-specification:arial;word-spacing:0px;fill:#006886;fill-opacity:1;stroke-width:0.264583"
       x="83.619484"
       y="58.416031"
       id="text2450"><tspan
         sodipodi:role="line"
         id="tspan2448"
         style="fill:#006886;fill-opacity:1;stroke-width:0.264583"
         x="83.619484"
         y="58.416031">usage</tspan></text>
    <text
       xml:space="preserve"
       style="font-size:10.5833px;line-height:1.25;font-family:arial;-inkscape-font-specification:arial;word-spacing:0px;fill:#006886;fill-opacity:1;stroke-width:0.264583"
       x="127.92513"
       y="58.416031"
       id="text2454"><tspan
         sodipodi:role="line"
         id="tspan2452"
         style="fill:#006886;fill-opacity:1;stroke-width:0.264583"
         x="127.92513"
         y="58.416031">sharing</tspan></text>
    <path
       id="path3817_1_"
       nodetypes="ccccccc"
       d="M -31.790259,67.733809 163.58149,68.08086 c 2.72982,0 5.16859,-0.40475 5.16859,5.447352 l -0.23919,64.338878 H -36.720493 V 73.289041 c 0,-2.885898 0.279345,-5.555232 4.930234,-5.555232 z"
       style="fill:#aab2ab;stroke-width:1.71274" />
    <path
       d="M 165.75097,66.859091 H -33.329114 c -2.135175,0 -3.873094,1.7369 -3.873094,3.871853 V 138.3747 c 0,0.48252 0.392237,0.87388 0.874809,0.87388 H 168.7501 c 0.48257,0 0.87481,-0.39138 0.87481,-0.87388 V 70.730944 c -2e-5,-2.134953 -1.73792,-3.871853 -3.87394,-3.871853 z M -33.329131,68.608527 H 165.75096 c 1.17171,0 2.1243,0.95165 2.1243,2.122417 0,0 0,27.313727 0,47.011706 H 25.12105 c -5.21542,9.4296 -15.2632183,15.83196 -26.7946844,15.83196 -11.5364846,0 -21.5817826,-6.3965 -26.7946836,-15.83196 h -6.984289 c 0,-19.697961 0,-47.011706 0,-47.011706 1.7e-5,-1.17075 0.952605,-2.122417 2.123476,-2.122417 z"
       id="path263"
       style="stroke-width:1.71274" />
    <g
       enable-background="new    "
       id="g265"
       transform="matrix(1.7128263,0,0,1.7126484,-383.70356,66.859091)">
      <path
         d="m 253.07761,32.95605 c 0.31738,0 0.60742,0.02832 0.87012,0.08398 0.26172,0.05566 0.48535,0.14746 0.67285,0.27539 0.18652,0.12695 0.33203,0.29688 0.43457,0.50781 0.10254,0.21191 0.1543,0.47266 0.1543,0.78418 0,0.33594 -0.0762,0.61523 -0.22949,0.83887 -0.15234,0.22461 -0.37891,0.40723 -0.67773,0.55078 0.41211,0.11816 0.71973,0.3252 0.92285,0.62109 0.20312,0.29589 0.30469,0.65234 0.30469,1.06934 0,0.33594 -0.0654,0.62695 -0.19629,0.87305 -0.13086,0.24512 -0.30762,0.44629 -0.52832,0.60156 -0.22168,0.15625 -0.47461,0.27148 -0.75781,0.3457 -0.28418,0.0752 -0.5752,0.1123 -0.875,0.1123 H 249.936 v -6.66406 h 3.14161 z m -0.1875,2.69532 c 0.26172,0 0.47656,-0.0625 0.64551,-0.18652 0.16797,-0.12402 0.25195,-0.3252 0.25195,-0.60449 0,-0.15527 -0.0283,-0.2832 -0.084,-0.38184 -0.0566,-0.09961 -0.13086,-0.17676 -0.22461,-0.2334 -0.0937,-0.05566 -0.20117,-0.09473 -0.32227,-0.11621 -0.1211,-0.02148 -0.24805,-0.03223 -0.37793,-0.03223 h -1.37402 v 1.55469 z m 0.0859,2.82812 c 0.14355,0 0.28027,-0.01367 0.41113,-0.04199 0.13086,-0.02832 0.24609,-0.0752 0.34668,-0.13965 0.0996,-0.06543 0.17871,-0.1543 0.23828,-0.2666 0.0596,-0.11133 0.0889,-0.25488 0.0889,-0.42871 0,-0.3418 -0.0967,-0.58594 -0.29004,-0.73242 -0.19336,-0.14551 -0.44922,-0.21875 -0.7666,-0.21875 h -1.59961 v 1.82812 z"
         id="path267"
         style="fill:#ffffff" />
      <path
         d="m 255.78854,32.95605 h 1.64355 l 1.56055,2.63184 1.55078,-2.63184 h 1.63379 l -2.47363,4.10645 v 2.55762 h -1.46875 v -2.59473 z"
         id="path269"
         style="fill:#ffffff" />
    </g>
    <g
       id="g5908_1_"
       transform="matrix(1.495162,0,0,1.4950068,-257.61002,312.135)">
      <path
         id="path5906_1_"
         cx="296.35416"
         ry="22.939548"
         cy="264.3577"
         type="arc"
         rx="22.939548"
         d="m 186.90065,-141.46002 c 0.006,8.68079 -7.02786,15.7215 -15.70808,15.72711 -8.68022,0.006 -15.72206,-7.02734 -15.7271,-15.70807 0,-0.006 0,-0.0123 0,-0.019 -0.005,-8.68079 7.02786,-15.7215 15.70808,-15.72656 8.68135,-0.006 15.72206,7.02734 15.7271,15.70813 0,0.006 0,0.0123 0,0.0184 z"
         style="fill:#ffffff" />
      <g
         id="g5706_1_"
         transform="translate(-289.6157,99.0653)">
        <path
           id="path5708_1_"
           d="m 473.57574,-253.32751 c 3.48541,3.48541 5.22839,7.75391 5.22839,12.80219 0,5.04938 -1.71277,9.27203 -5.13831,12.66791 -3.63531,3.5766 -7.93182,5.36432 -12.88947,5.36432 -4.89777,0 -9.11987,-1.77319 -12.66513,-5.31952 -3.54581,-3.54584 -5.31845,-7.78302 -5.31845,-12.71271 0,-4.92859 1.77264,-9.19598 5.31845,-12.80219 3.4552,-3.48651 7.67728,-5.22949 12.66513,-5.22949 5.0483,-10e-6 9.31404,1.74297 12.79939,5.22949 z m -23.11798,2.34484 c -2.94672,2.97638 -4.41953,6.46289 -4.41953,10.46234 0,3.99835 1.45828,7.45526 4.37424,10.37067 2.9165,2.9165 6.38849,4.37421 10.41705,4.37421 4.02856,0 7.53015,-1.47223 10.50653,-4.4184 2.82593,-2.73645 4.23944,-6.17706 4.23944,-10.32648 0,-4.11804 -1.43646,-7.61346 -4.30768,-10.48468 -2.87067,-2.87067 -6.34991,-4.30658 -10.43829,-4.30658 -4.0884,1e-5 -7.54638,1.44318 -10.37176,4.32892 z m 7.75449,8.70319 c -0.45029,-0.98169 -1.1243,-1.47284 -2.02322,-1.47284 -1.58917,0 -2.38345,1.07007 -2.38345,3.20911 0,2.13953 0.79428,3.2085 2.38345,3.2085 1.04938,0 1.79892,-0.52075 2.24866,-1.56451 l 2.20276,1.17297 c -1.04993,1.86548 -2.62509,2.79846 -4.72549,2.79846 -1.6199,0 -2.91763,-0.4967 -3.89206,-1.48901 -0.9761,-0.99341 -1.46274,-2.36273 -1.46274,-4.10852 0,-1.71503 0.50229,-3.07654 1.50748,-4.08502 1.00519,-1.00854 2.25702,-1.51257 3.75781,-1.51257 2.22012,0 3.80981,0.87488 4.77081,2.62286 z m 10.36337,0 c -0.45087,-0.98169 -1.11145,-1.47284 -1.98242,-1.47284 -1.62103,0 -2.43213,1.07007 -2.43213,3.20911 0,2.13953 0.8111,3.2085 2.43213,3.2085 1.05109,0 1.78717,-0.52075 2.20728,-1.56451 l 2.25201,1.17297 c -1.04828,1.86548 -2.62122,2.79846 -4.71771,2.79846 -1.61768,0 -2.9126,-0.4967 -3.88647,-1.48901 -0.97217,-0.99341 -1.45935,-2.36273 -1.45935,-4.10852 0,-1.71503 0.49445,-3.07654 1.48285,-4.08502 0.98785,-1.00854 2.2453,-1.51257 3.7735,-1.51257 2.21619,0 3.80365,0.87488 4.76129,2.62286 z" />
      </g>
    </g>
    <g
       id="g275"
       transform="matrix(1.7128263,0,0,1.7126484,-383.70356,66.859091)">
      <circle
         cx="255.55124"
         cy="15.31348"
         r="10.80664"
         id="circle277"
         style="fill:#ffffff" />
      <g
         id="g279">
        <path
           d="m 258.67819,12.18701 c 0,-0.4165 -0.33789,-0.75391 -0.75293,-0.75391 h -4.77344 c -0.41504,0 -0.75293,0.3374 -0.75293,0.75391 v 4.77295 h 1.33105 v 5.65186 h 3.61719 v -5.65186 h 1.33105 v -4.77295 z"
           id="path281" />
        <circle
           cx="255.53854"
           cy="9.1723604"
           r="1.63281"
           id="circle283" />
      </g>
      <path
         clip-rule="evenodd"
         d="m 255.5239,3.40723 c -3.23242,0 -5.96875,1.12793 -8.20801,3.38379 -2.29785,2.3335 -3.44629,5.0957 -3.44629,8.28467 0,3.18897 1.14844,5.93164 3.44629,8.22656 2.29785,2.29443 5.03418,3.44189 8.20801,3.44189 3.21289,0 5.99805,-1.15625 8.35352,-3.47119 2.21973,-2.19727 3.33008,-4.92969 3.33008,-8.19727 0,-3.26758 -1.12988,-6.02881 -3.3877,-8.28467 -2.25977,-2.25585 -5.02442,-3.38378 -8.2959,-3.38378 z m 0.0293,2.09961 c 2.64844,0 4.89746,0.93408 6.74707,2.80127 1.86914,1.84717 2.80371,4.10303 2.80371,6.76758 0,2.68359 -0.91504,4.91064 -2.74512,6.68018 -1.92871,1.90625 -4.19629,2.85889 -6.80566,2.85889 -2.61035,0 -4.85938,-0.94287 -6.74707,-2.82959 -1.88965,-1.88672 -2.83301,-4.12305 -2.83301,-6.70947 0,-2.58691 0.9541,-4.84229 2.8623,-6.76758 1.83009,-1.8672 4.06934,-2.80128 6.71778,-2.80128 z"
         id="path285"
         style="fill-rule:evenodd" />
    </g>
    <g
       id="g6365"
       transform="matrix(6.4870912,0,0,6.4870912,-758.69077,-1077.8958)">
      <g
         transform="matrix(0.26293783,0,0,0.26291452,61.194913,137.08071)"
         enable-background="new    "
         id="g340">
        <path
           d="m 265.78076,182.77734 2.78418,4.4707 h 0.0156 v -4.4707 h 1.375 v 6.66406 h -1.46582 l -2.77344,-4.46191 h -0.0186 v 4.46191 h -1.375 v -6.66406 z"
           id="path342"
           style="fill:#ffffff" />
        <path
           d="m 275.51904,184.55273 c -0.0869,-0.14062 -0.19629,-0.26367 -0.32715,-0.36914 -0.13086,-0.10547 -0.27832,-0.18848 -0.44336,-0.24707 -0.16504,-0.0596 -0.33789,-0.0889 -0.51758,-0.0889 -0.33008,0 -0.61035,0.0635 -0.84082,0.19141 -0.23047,0.12695 -0.41699,0.29785 -0.55957,0.5127 -0.14355,0.21484 -0.24805,0.45898 -0.31348,0.73242 -0.0654,0.27344 -0.0977,0.55664 -0.0977,0.84863 0,0.28027 0.0322,0.55273 0.0977,0.81641 0.0654,0.26465 0.16992,0.50293 0.31348,0.71387 0.14258,0.21191 0.3291,0.38086 0.55957,0.50879 0.23047,0.12793 0.51074,0.19141 0.84082,0.19141 0.44727,0 0.79785,-0.13672 1.0498,-0.41113 0.25195,-0.27344 0.40625,-0.63477 0.46191,-1.08301 h 1.41895 c -0.0371,0.41699 -0.13379,0.79395 -0.28906,1.12988 -0.15527,0.33691 -0.36133,0.62305 -0.61621,0.86035 -0.25488,0.2373 -0.55371,0.41797 -0.89648,0.54297 -0.3418,0.125 -0.71875,0.1875 -1.12891,0.1875 -0.51074,0 -0.96973,-0.0889 -1.37793,-0.2666 -0.40723,-0.17676 -0.75195,-0.42188 -1.03223,-0.73242 -0.28125,-0.31152 -0.49609,-0.67773 -0.64551,-1.09766 -0.14941,-0.4209 -0.22461,-0.87305 -0.22461,-1.35938 0,-0.49805 0.0752,-0.95996 0.22461,-1.38672 0.14941,-0.42676 0.36426,-0.79883 0.64551,-1.11621 0.28027,-0.31738 0.625,-0.56641 1.03223,-0.74707 0.4082,-0.18066 0.86719,-0.27051 1.37793,-0.27051 0.36719,0 0.71387,0.0527 1.04102,0.15918 0.32617,0.10547 0.61914,0.25977 0.87695,0.46289 0.25879,0.20215 0.47168,0.45312 0.63965,0.75195 0.16797,0.29883 0.27344,0.6416 0.31738,1.02734 H 275.687 c -0.0244,-0.16796 -0.081,-0.32226 -0.16796,-0.46191 z"
           id="path344"
           style="fill:#ffffff" />
      </g>
      <g
         transform="matrix(0.26458333,0,0,0.26458333,111.89185,176.47106)"
         id="g2366">
        <path
           id="path6372_1_"
           cx="475.97119"
           ry="29.209877"
           cy="252.08646"
           type="arc"
           rx="29.209877"
           d="m 87.801399,14.981221 c 0.0048,5.500587 -4.451603,9.961917 -9.953251,9.966304 -5.500714,0.0034 -9.962985,-4.45211 -9.966848,-9.951763 0,-0.0058 0,-0.01019 0,-0.01454 -0.0039,-5.5010765 4.452572,-9.9624055 9.953251,-9.9667814 5.50068,-0.00341 9.96295,4.4521099 9.966848,9.9517284 0,0.0049 0,0.01019 0,0.01505 z"
           style="fill:#ffffff" />
        <path
           id="path45"
           d="m 86.070369,6.7455646 c -2.24512,-2.242292 -4.99278,-3.362732 -8.24368,-3.362732 -3.21268,0 -5.93132,1.12044 -8.15662,3.362732 -2.28405,2.319442 -3.42502,5.0635624 -3.42502,8.2337704 0,3.169502 1.14097,5.89522 3.42502,8.175023 2.28334,2.28122 5.00198,3.421479 8.15662,3.421479 3.19286,0 5.96033,-1.150166 8.30171,-3.449789 2.2062,-2.184252 3.30965,-4.900058 3.30965,-8.146713 0,-3.247361 -1.12256,-5.9921884 -3.36768,-8.2337704 z m -1.45169,14.8728804 c -1.916,1.894056 -4.17032,2.840378 -6.76297,2.840378 -2.59336,0 -4.82858,-0.93712 -6.70565,-2.812068 -1.87707,-1.874948 -2.8156,-4.097421 -2.8156,-6.667423 0,-1.087172 0.17164,-2.114891 0.51103,-3.083862 l 3.07288,1.360027 h -0.22154 v 1.378074 h 1.08753 c 0,0.194644 -0.01946,0.388581 -0.01946,0.582514 v 0.33054 h -1.06807 v 1.378074 h 1.262 c 0.17482,1.029132 0.56305,1.863623 1.08717,2.523993 1.08717,1.436821 2.83436,2.213272 4.73692,2.213272 1.24288,0 2.36828,-0.368761 3.02865,-0.738229 l -0.46644,-2.154525 c -0.40769,0.213752 -1.31933,0.504658 -2.21257,0.504658 -0.97109,0 -1.88308,-0.290902 -2.50452,-0.990204 -0.29126,-0.329833 -0.50466,-0.776451 -0.6402,-1.358965 h 4.22057 l 5.99714,2.654584 c -0.41547,0.736114 -0.94277,1.416303 -1.58687,2.039162 z m -7.54225,-6.071813 -0.02548,-0.01946 0.04388,0.01946 z m 3.61045,-0.913054 h 0.17342 v -1.378074 h -3.287 l -1.33525,-0.591008 c 0.11501,-0.258345 0.25091,-0.489441 0.40945,-0.670281 0.60198,-0.738937 1.45594,-1.048951 2.3881,-1.048951 0.85431,0 1.64987,0.251974 2.15453,0.46573 l 0.54358,-2.2132724 c -0.6993,-0.310015 -1.72773,-0.581808 -2.91187,-0.581808 -1.82469,0 -3.37794,0.737523 -4.48458,1.9797014 -0.2456,0.283824 -0.45865,0.602333 -0.65188,0.939244 l -3.8136,-1.6877374 c 0.36947,-0.554204 0.80406,-1.086465 1.3073,-1.593953 1.81974,-1.855836 4.04434,-2.783755 6.67662,-2.783755 2.63158,0 4.8668,0.927919 6.70565,2.783755 1.85725,1.8360194 2.78588,4.0776014 2.78588,6.7261704 0,0.872709 -0.0991,1.695876 -0.29445,2.471617 z" />
      </g>
    </g>
    <path
       class="st0"
       d="M 65.921901,227.5798 H -79.598931 c -1.11125,0 -1.984375,-0.89959 -1.984375,-1.98438 v -47.625 c 0,-1.11125 0.899584,-1.98437 1.984375,-1.98437 H 65.921901 c 1.11125,0 1.984375,0.89958 1.984375,1.98437 v 47.625 c 0,1.08479 -0.899584,1.98438 -1.984375,1.98438 z"
       id="path6497"
       style="stroke-width:0.264583" />
    <path
       d="M 65.921901,175.32459 H -79.598931 c -1.455208,0 -2.645833,1.19062 -2.645833,2.64583 v 47.625 c 0,1.45521 1.190625,2.64584 2.645833,2.64584 H 65.921901 c 1.455208,0 2.645833,-1.19063 2.645833,-2.64584 v -47.625 c 0,-1.45521 -1.190625,-2.64583 -2.645833,-2.64583 z m -145.520832,1.5875 H 65.921901 c 0.582083,0 1.058333,0.47625 1.058333,1.05833 v 34.39584 H -80.657264 v -34.39584 c 0,-0.58208 0.47625,-1.05833 1.058333,-1.05833 z"
       id="path6499"
       style="stroke-width:0.264583" />
    <circle
       class="st0"
       cx="-56.315598"
       cy="199.93085"
       r="22.886457"
       id="circle6501"
       style="stroke-width:0.264583" />
    <path
       class="st1"
       d="m -19.062265,219.56292 c 0.873125,-0.42333 1.322917,-1.00541 1.322917,-1.77271 0,-0.76729 -0.3175,-1.37583 -0.926042,-1.7727 -0.608541,-0.42334 -1.455208,-0.635 -2.54,-0.635 -0.555625,0 -1.561041,0.0265 -2.963333,0.0794 v 9.36625 h 3.201458 c 1.137709,0 2.06375,-0.23812 2.778125,-0.74083 0.714375,-0.50271 1.084792,-1.19063 1.084792,-2.03729 -0.02646,-1.24355 -0.661458,-2.06375 -1.957917,-2.48709 z m -3.254375,-2.72521 c 0.423334,-0.0264 0.767292,-0.0264 1.058334,-0.0264 1.084791,0 1.640416,0.37041 1.640416,1.08479 0,0.82021 -0.608541,1.21708 -1.799166,1.21708 -0.3175,0 -0.608542,0 -0.899584,-0.0265 z m 2.69875,6.29709 c -0.370416,0.26458 -0.978958,0.37041 -1.799166,0.37041 -0.238125,0 -0.529167,-0.0265 -0.899584,-0.0529 v -3.09563 c 0.449792,0 0.740834,-0.0265 0.926042,-0.0265 0.873125,0 1.481667,0.1323 1.825625,0.37042 0.343958,0.23813 0.529167,0.635 0.529167,1.16417 -0.02646,0.60854 -0.211667,1.03187 -0.582084,1.27 z"
       id="path6503"
       style="stroke-width:0.264583" />
    <polygon
       class="st1"
       points="259.2,187.3 266.2,187.3 266.2,172.7 279.5,151.8 272.1,151.8 262.7,166.9 253.4,151.8 245.9,151.8 259.2,172.7 "
       id="polygon6505"
       transform="matrix(0.26458333,0,0,0.26458333,-82.244764,175.32459)" />
    <polygon
       class="st1"
       points="345.1,165.2 363.9,187.2 366.7,187.2 366.7,152 360.1,152 360.1,173 341.8,152 338.5,152 338.5,186.8 345.1,186.8 "
       id="polygon6507"
       transform="matrix(0.26458333,0,0,0.26458333,-82.244764,175.32459)" />
    <path
       class="st1"
       d="m 23.138776,222.52626 c -0.555625,0.60854 -1.296458,0.92604 -2.275416,0.92604 -0.846667,0 -1.508125,-0.29104 -2.010834,-0.87313 -0.502708,-0.58208 -0.767291,-1.34937 -0.767291,-2.35479 0,-1.00542 0.264583,-1.79917 0.820208,-2.43417 0.555625,-0.635 1.243542,-0.9525 2.090208,-0.9525 0.899584,0 1.561042,0.18521 1.957917,0.55563 l 0.740833,-1.34938 c -0.714375,-0.42333 -1.640416,-0.635 -2.804583,-0.635 -1.375833,0 -2.487083,0.4498 -3.360208,1.37584 -0.873125,0.92604 -1.322917,2.06375 -1.322917,3.41312 0,1.45521 0.396875,2.61938 1.190625,3.46604 0.79375,0.84667 1.905,1.27 3.33375,1.27 1.42875,0 2.513542,-0.34395 3.254375,-1.05833 z"
       id="path6509"
       style="stroke-width:0.264583" />
    <circle
       class="st1"
       cx="-16.628098"
       cy="194.00417"
       r="13.229166"
       id="circle6515"
       style="stroke-width:0.264583" />
    <path
       d="m -16.628098,182.09792 c 6.561666,0 11.9062497,5.34459 11.9062497,11.90625 0,6.56167 -5.3445837,11.90625 -11.9062497,11.90625 -6.561667,0 -11.90625,-5.34458 -11.90625,-11.90625 0,-6.56166 5.344583,-11.90625 11.90625,-11.90625 m 0,-2.64583 c -8.043333,0 -14.552083,6.50875 -14.552083,14.55208 0,8.04334 6.50875,14.55209 14.552083,14.55209 8.0433331,0 14.552083,-6.50875 14.552083,-14.55209 0,-8.04333 -6.5087499,-14.55208 -14.552083,-14.55208 z"
       id="path6517"
       style="stroke-width:0.264583" />
    <circle
       cx="-16.628098"
       cy="186.70168"
       r="2.0902083"
       id="circle6519"
       style="stroke-width:0.264583" />
    <path
       d="m -13.135598,190.64396 c 0,-0.21166 0.02646,-0.60854 -0.291042,-0.92604 -0.291042,-0.29104 -0.714375,-0.29104 -0.926042,-0.29104 h -4.577291 c -0.211667,0 -0.608542,-0.0265 -0.926042,0.29104 -0.291041,0.29104 -0.291041,0.71438 -0.291041,0.92604 v 5.79438 h 1.322916 v 6.985 h 4.339167 v -6.985 h 1.322916 c 0.02646,0 0.02646,-5.00063 0.02646,-5.79438 z"
       id="path6521"
       style="stroke-width:0.264583" />
    <circle
       class="st2"
       cx="-56.315598"
       cy="199.93085"
       r="18.123959"
       id="circle6523" />
    <path
       d="m -61.395598,203.4498 c -1.825625,0 -2.672291,-1.50813 -2.672291,-3.51896 0,-2.01083 0.714375,-3.51896 2.672291,-3.51896 0.529167,0 1.5875,0.29104 2.196042,1.61396 l 2.645833,-1.37583 c -1.11125,-2.0373 -3.042708,-2.8575 -5.265208,-2.8575 -3.227917,0 -5.820833,2.27541 -5.820833,6.16479 0,3.94229 2.434166,6.16479 5.926666,6.16479 2.248959,0 4.153959,-1.24354 5.212292,-3.09563 l -2.460625,-1.24354 c -0.529167,1.27 -1.375833,1.66688 -2.434167,1.66688 z"
       id="path6525"
       style="stroke-width:0.264583" />
    <path
       d="m -47.478514,201.73001 c -0.555625,1.32291 -1.375834,1.71979 -2.434167,1.71979 -1.825625,0 -2.672292,-1.50813 -2.672292,-3.51896 0,-2.01083 0.714375,-3.51896 2.672292,-3.51896 0.529167,0 1.5875,0.29104 2.196042,1.61396 l 2.645833,-1.37583 c -1.11125,-2.0373 -3.042708,-2.8575 -5.265208,-2.8575 -3.227917,0 -5.820834,2.27541 -5.820834,6.16479 0,3.94229 2.434167,6.16479 5.926667,6.16479 2.248958,0 4.153958,-1.24354 5.212292,-3.09563 z"
       id="path6527"
       style="stroke-width:0.264583" />
    <g
       id="g6592"
       transform="matrix(0.36121142,0,0,0.36121142,-31.627779,67.059375)">
      <polygon
         class="st1"
         points="488.1,187.3 488.1,151.6 481.4,151.6 481.4,172.9 462.9,151.6 459.5,151.6 459.5,186.8 466.2,186.8 466.2,165 485.2,187.3 "
         id="polygon6511" />
      <circle
         class="st1"
         cx="492"
         cy="70.599998"
         r="50"
         id="circle6529" />
      <g
         id="g6583">
        <path
           class="st1"
           d="m 519.5,155.9 c -3.3,-3 -7.9,-4.5 -13.6,-4.5 -1.4,0 -4.9,0.1 -10.5,0.3 v 35.2 h 8.7 c 13.6,0 20.4,-6.3 20.4,-19 0,-5 -1.7,-9 -5,-12 z m -5.2,21.9 c -2,2.3 -4.7,3.4 -8.3,3.4 -1.3,0 -2.5,0 -3.6,-0.1 v -24 c 1.4,-0.1 2.4,-0.2 3.2,-0.2 7.8,0 11.7,3.8 11.7,11.3 0,4.1 -1,7.3 -3,9.6 z"
           id="path6513" />
        <path
           d="m 492,25.6 c 24.8,0 45,20.2 45,45 0,24.8 -20.2,45 -45,45 -24.8,0 -45,-20.2 -45,-45 0,-24.8 20.2,-45 45,-45 m 0,-10 c -30.4,0 -55,24.6 -55,55 0,30.4 24.6,55 55,55 30.4,0 55,-24.6 55,-55 0,-30.4 -24.6,-55 -55,-55 z"
           id="path6531" />
      </g>
      <rect
         x="471.39999"
         y="74.300003"
         width="41.200001"
         height="10.3"
         id="rect6533" />
      <rect
         x="471.39999"
         y="55.400002"
         width="41.200001"
         height="10.3"
         id="rect6535" />
    </g>
    <circle
       class="st1"
       cx="15.651068"
       cy="194.00417"
       r="13.229166"
       id="circle6537"
       style="stroke-width:0.264583" />
    <path
       d="m 15.651068,182.09792 c 6.561667,0 11.90625,5.34459 11.90625,11.90625 0,6.56167 -5.344583,11.90625 -11.90625,11.90625 -6.5616665,0 -11.9062498,-5.34458 -11.9062498,-11.90625 0,-6.56166 5.3445833,-11.90625 11.9062498,-11.90625 m 0,-2.64583 c -8.0433331,0 -14.552083,6.50875 -14.552083,14.55208 0,8.04334 6.5087499,14.55209 14.552083,14.55209 8.043333,0 14.552083,-6.50875 14.552083,-14.55209 0,-8.04333 -6.50875,-14.55208 -14.552083,-14.55208 z"
       id="path6539"
       style="stroke-width:0.264583" />
    <path
       d="M 28.880235,198.23751 27.68961,200.85688 2.4219016,189.4798 3.6125266,186.86042 Z"
       id="path6541"
       style="stroke-width:0.264583" />
    <path
       d="m 12.555443,196.96751 c 0.926042,1.32291 3.81,1.40229 4.788958,0.84666 0.370417,-0.21166 0.449792,-0.79375 0.449792,-1.19062 0,-0.26459 -0.07937,-0.50271 -0.211667,-0.66146 -0.15875,-0.15875 -0.529166,-0.55563 -0.978958,-0.66146 -2.275417,-0.58208 -3.862917,-1.32292 -4.471458,-1.85208 -0.767292,-0.66146 -0.899584,-1.11125 -0.899584,-2.27542 0,-1.16417 0.343959,-2.14312 1.084792,-2.83104 0.767292,-0.68792 1.852083,-1.05833 3.280833,-1.05833 1.375834,0 3.307292,0.37041 4.259792,1.48166 l -1.561042,1.71979 c -0.899583,-0.74083 -1.534583,-0.8202 -2.619375,-0.8202 -0.687916,0 -1.031875,0.10583 -1.322916,0.29104 -0.291042,0.18521 -0.423334,0.42333 -0.423334,0.74083 0,0.26458 0.132292,0.50271 0.396875,0.68792 0.264584,0.18521 0.9525,0.47625 2.328334,0.84666 1.561041,0.42334 2.592916,0.92605 3.148541,1.53459 0.555625,0.60854 0.820209,1.40229 0.820209,2.40771 0,1.21708 -0.423334,2.19604 -1.27,2.98979 -0.846667,0.79375 -1.878542,1.40229 -3.386667,1.40229 -1.931458,0 -4.497917,-0.68792 -5.212292,-1.93146"
       id="path6543"
       style="stroke-width:0.264583" />
    <path
       d="m 14.698568,184.98188 v 3.175 h 1.375833 v -3.175 z m 0,15.00188 v 2.7252 h 1.375833 v -2.7252 z"
       id="path6545"
       style="stroke-width:0.264583" />
  </g>
  <style
     type="text/css"
     id="style6495">.st0{fill:#ABB1AA;} .st1{fill:#FFFFFF;} .st2{fill:#FFFFFF;stroke:#000000;stroke-width:14;stroke-miterlimit:10;}</style>
</svg>
