<svg fill="none" height="36" viewBox="0 0 114 36" width="114" xmlns="http://www.w3.org/2000/svg"><path d="m5.006 24.196c.056.812.392 1.54 1.008 2.184s1.54.966 2.772.966c.924 0 1.61-.196 2.058-.588.448-.42.672-.91.672-1.47 0-.476-.168-.882-.504-1.218-.336-.364-.91-.63-1.722-.798l-2.73-.63c-2.016-.448-3.486-1.218-4.41-2.31-.924-1.12-1.386-2.408-1.386-3.864 0-.924.196-1.792.588-2.604.392-.84.924-1.554 1.596-2.142.7-.616 1.512-1.106 2.436-1.47.952-.364 1.988-.546 3.108-.546 1.456 0 2.688.21 3.696.63 1.008.392 1.82.896 2.436 1.512.644.616 1.12 1.274 1.428 1.974.308.672.49 1.288.546 1.848l-4.662 1.05c-.056-.308-.154-.616-.294-.924-.112-.336-.308-.644-.588-.924s-.63-.504-1.05-.672c-.392-.168-.882-.252-1.47-.252-.728 0-1.358.196-1.89.588-.504.392-.756.882-.756 1.47 0 .504.168.91.504 1.218.364.308.826.518 1.386.63l2.94.63c2.044.42 3.57 1.204 4.578 2.352 1.036 1.148 1.554 2.478 1.554 3.99 0 .84-.168 1.666-.504 2.478-.308.812-.798 1.54-1.47 2.184s-1.512 1.162-2.52 1.554-2.184.588-3.528.588c-1.568 0-2.884-.224-3.948-.672s-1.932-.994-2.604-1.638-1.176-1.33-1.512-2.058c-.308-.756-.49-1.428-.546-2.016zm25.5353-9.324c-.728 0-1.414.126-2.058.378-.616.252-1.162.63-1.638 1.134-.476.476-.854 1.078-1.134 1.806s-.42 1.554-.42 2.478.14 1.75.42 2.478.658 1.344 1.134 1.848c.504.504 1.064.882 1.68 1.134.644.252 1.33.378 2.058.378.7 0 1.316-.098 1.848-.294.56-.224 1.036-.504 1.428-.84s.7-.714.924-1.134c.252-.42.434-.826.546-1.218l4.914 1.638c-.224.868-.602 1.722-1.134 2.562-.504.812-1.162 1.554-1.974 2.226-.812.644-1.764 1.162-2.856 1.554-1.092.42-2.324.63-3.696.63-1.512 0-2.94-.266-4.284-.798-1.316-.56-2.464-1.33-3.444-2.31s-1.75-2.128-2.31-3.444c-.56-1.344-.84-2.814-.84-4.41s.266-3.066.798-4.41c.56-1.344 1.316-2.492 2.268-3.444.98-.98 2.114-1.736 3.402-2.268 1.316-.56 2.73-.84 4.242-.84 1.4 0 2.646.21 3.738.63 1.12.392 2.086.91 2.898 1.554s1.47 1.386 1.974 2.226.868 1.694 1.092 2.562l-4.998 1.68c-.252-.868-.742-1.666-1.47-2.394-.7-.728-1.736-1.092-3.108-1.092zm13.8098 16.128v-20.664h5.586v20.664zm-.672-27.426c0-.98.336-1.806 1.008-2.478.672-.672002 1.484-1.0080026 2.436-1.0080026.98 0 1.792.3360006 2.436 1.0080026.672.672 1.008 1.498 1.008 2.478 0 .924-.336 1.722-1.008 2.394-.644.672-1.456 1.008-2.436 1.008-.952 0-1.764-.336-2.436-1.008s-1.008-1.47-1.008-2.394zm19.1264 6.762h4.158v4.956h-4.158v8.652c0 .896.196 1.526.588 1.89.42.336 1.036.504 1.848.504.336 0 .672-.014 1.008-.042s.574-.07.714-.126v4.62c-.252.112-.644.224-1.176.336-.504.112-1.162.168-1.974.168-2.016 0-3.612-.56-4.788-1.68s-1.764-2.688-1.764-4.704v-9.618h-3.738v-4.956h1.05c1.092 0 1.89-.308 2.394-.924.532-.644.798-1.428.798-2.352v-2.898h5.04zm22.012 7.98c-.028-.504-.14-.994-.336-1.47-.168-.504-.448-.938-.84-1.302-.364-.392-.84-.7-1.428-.924-.56-.252-1.232-.378-2.016-.378-.728 0-1.372.126-1.932.378s-1.036.574-1.428.966-.7.826-.924 1.302c-.196.476-.308.952-.336 1.428zm5.208 6.762c-.252.896-.658 1.75-1.218 2.562-.532.784-1.19 1.47-1.974 2.058s-1.708 1.05-2.772 1.386c-1.036.364-2.184.546-3.444.546-1.428 0-2.786-.238-4.074-.714-1.288-.504-2.422-1.232-3.402-2.184s-1.764-2.114-2.352-3.486c-.56-1.372-.84-2.926-.84-4.662 0-1.652.28-3.15.84-4.494s1.302-2.478 2.226-3.402c.952-.952 2.044-1.68 3.276-2.184 1.232-.532 2.506-.798 3.822-.798 3.22 0 5.726.952 7.518 2.856s2.688 4.522 2.688 7.854c0 .392-.014.77-.042 1.134-.028.336-.042.532-.042.588h-14.784c.028.672.182 1.302.462 1.89.308.56.686 1.05 1.134 1.47.476.42 1.022.756 1.638 1.008.616.224 1.274.336 1.974.336 1.316 0 2.338-.294 3.066-.882.756-.588 1.302-1.344 1.638-2.268zm1.7988 10.5v-4.578h21.4617v4.578z" fill="#0062ff"/></svg>